<svg xmlns="http://www.w3.org/2000/svg" viewBox="0 0 64 64" width="64" height="64">
  <defs>
    <radialGradient id="bg" cx="50%" cy="50%" r="50%">
      <stop offset="0%" stop-color="#2a241e"/>
      <stop offset="70%" stop-color="#14110e"/>
      <stop offset="100%" stop-color="#0a0807"/>
    </radialGradient>
    <linearGradient id="grad" x1="0%" y1="0%" x2="100%" y2="100%">
      <stop offset="0%" stop-color="#ffe082"/><stop offset="50%" stop-color="#ffb300"/><stop offset="100%" stop-color="#c43e00"/>
    </linearGradient>
    <filter id="glow" x="-20%" y="-20%" width="140%" height="140%">
      <feGaussianBlur stdDeviation="1.5" result="blur" />
      <feComposite in="SourceGraphic" in2="blur" operator="over" />
    </filter>
  </defs>
  <rect width="64" height="64" rx="4" fill="url(#bg)"/>
  <rect x="2" y="2" width="60" height="60" rx="3" fill="none" stroke="#523e25" stroke-width="1.5"/>
  <g filter="url(#glow)">
    <path d="M16 38 C16 22 48 22 48 38 L44 44 L32 40 L20 44 Z M16 26 C10 16 12 8 16 6 C16 14 20 20 22 24 M48 26 C54 16 52 8 48 6 C48 14 44 20 42 24" fill="url(#grad)" stroke="#fff" stroke-width="1.2"/>
  </g>
</svg>